<?xml version="1.0" standalone="no"?><!DOCTYPE svg PUBLIC "-//W3C//DTD SVG 1.1//EN" "http://www.w3.org/Graphics/SVG/1.1/DTD/svg11.dtd"><svg t="1584672602868" class="icon" viewBox="0 0 1025 1024" version="1.1" xmlns="http://www.w3.org/2000/svg" p-id="2473" xmlns:xlink="http://www.w3.org/1999/xlink" width="200.1953125" height="200"><defs><style type="text/css"></style></defs><path d="M1018.824249 392.533333l-176.355556-341.333333c-5.688889-17.066667-22.755556-22.755556-39.822222-22.755556H222.379804c-17.066667 0-34.133333 11.377778-39.822222 22.755556l-176.355555 341.333333c-11.377778 17.066667-5.688889 39.822222 5.688889 51.2l466.488888 529.066667c17.066667 17.066667 45.511111 22.755556 68.266667 5.688889 0 0 5.688889 0 5.688889-5.688889l466.488889-529.066667c5.688889-11.377778 11.377778-34.133333 0-51.2z m-199.111111 22.755556l-273.066667 301.511111c-17.066667 17.066667-45.511111 22.755556-68.266667 5.688889l-5.688888-5.688889-267.377778-301.511111c-17.066667-22.755556-17.066667-51.2 0-68.266667 22.755556-17.066667 51.2-17.066667 68.266666 5.688889L512.513138 614.4l238.933333-261.688889c17.066667-17.066667 45.511111-22.755556 68.266667-5.688889 17.066667 17.066667 17.066667 45.511111 0 68.266667z" p-id="2474" fill="#ffffff"></path></svg>